<svg aria-label="Diagram of two compute nodes, each with local memory and two four-core sockets, joined by a shared interconnect network." role="img" viewbox="0 0 800 372">
<title>Core, socket, node, cluster hierarchy</title>
<rect fill="#F7F8F6" height="209" rx="8" stroke="#C3C7C2" stroke-width="1" width="330" x="40" y="46"></rect>
<text class="sv-th" x="56" y="70">node 0</text>
<rect fill="#E4F1EE" height="30" rx="4" stroke="#12695C" stroke-width="0.8" width="290" x="60" y="82"></rect>
<text class="sv-s" fill="#0C3F38" text-anchor="middle" x="205" y="101">local memory · one single address space</text>
<rect fill="#fff" height="108" rx="5" stroke="#C3C7C2" stroke-width="0.8" width="140" x="60" y="128"></rect>
<text class="sv-s" x="70" y="147">socket 0</text>
<rect fill="#DCE3E0" height="26" rx="3" stroke="#8FA39D" stroke-width="0.6" width="26" x="70" y="158"></rect><rect fill="#DCE3E0" height="26" rx="3" stroke="#8FA39D" stroke-width="0.6" width="26" x="102" y="158"></rect><rect fill="#DCE3E0" height="26" rx="3" stroke="#8FA39D" stroke-width="0.6" width="26" x="134" y="158"></rect><rect fill="#DCE3E0" height="26" rx="3" stroke="#8FA39D" stroke-width="0.6" width="26" x="166" y="158"></rect>
<rect fill="#F2F3F1" height="18" rx="3" stroke="#C3C7C2" stroke-width="0.6" width="122" x="70" y="194"></rect>
<text class="sv-m" text-anchor="middle" x="131" y="207">shared cache</text>
<rect fill="#fff" height="108" rx="5" stroke="#C3C7C2" stroke-width="0.8" width="140" x="210" y="128"></rect>
<text class="sv-s" x="220" y="147">socket 1</text>
<rect fill="#DCE3E0" height="26" rx="3" stroke="#8FA39D" stroke-width="0.6" width="26" x="220" y="158"></rect><rect fill="#DCE3E0" height="26" rx="3" stroke="#8FA39D" stroke-width="0.6" width="26" x="252" y="158"></rect><rect fill="#DCE3E0" height="26" rx="3" stroke="#8FA39D" stroke-width="0.6" width="26" x="284" y="158"></rect><rect fill="#DCE3E0" height="26" rx="3" stroke="#8FA39D" stroke-width="0.6" width="26" x="316" y="158"></rect>
<rect fill="#F2F3F1" height="18" rx="3" stroke="#C3C7C2" stroke-width="0.6" width="122" x="220" y="194"></rect>
<text class="sv-m" text-anchor="middle" x="281" y="207">shared cache</text>
<rect fill="#F7F8F6" height="209" rx="8" stroke="#C3C7C2" stroke-width="1" width="330" x="430" y="46"></rect>
<text class="sv-th" x="446" y="70">node 1</text>
<rect fill="#E4F1EE" height="30" rx="4" stroke="#12695C" stroke-width="0.8" width="290" x="450" y="82"></rect>
<text class="sv-s" fill="#0C3F38" text-anchor="middle" x="595" y="101">local memory · one single address space</text>
<rect fill="#fff" height="108" rx="5" stroke="#C3C7C2" stroke-width="0.8" width="140" x="450" y="128"></rect>
<text class="sv-s" x="460" y="147">socket 0</text>
<rect fill="#DCE3E0" height="26" rx="3" stroke="#8FA39D" stroke-width="0.6" width="26" x="460" y="158"></rect><rect fill="#DCE3E0" height="26" rx="3" stroke="#8FA39D" stroke-width="0.6" width="26" x="492" y="158"></rect><rect fill="#DCE3E0" height="26" rx="3" stroke="#8FA39D" stroke-width="0.6" width="26" x="524" y="158"></rect><rect fill="#DCE3E0" height="26" rx="3" stroke="#8FA39D" stroke-width="0.6" width="26" x="556" y="158"></rect>
<rect fill="#F2F3F1" height="18" rx="3" stroke="#C3C7C2" stroke-width="0.6" width="122" x="460" y="194"></rect>
<text class="sv-m" text-anchor="middle" x="521" y="207">shared cache</text>
<rect fill="#EDEAFA" height="108" rx="5" stroke="#5B3FB8" stroke-dasharray="4 3" stroke-width="0.9" width="140" x="600" y="128"></rect>
<text class="sv-s" fill="#3B2C82" x="610" y="147">accelerator</text>
<text class="sv-th" fill="#3B2C82" text-anchor="middle" x="670" y="188">QPU</text>
<text class="sv-m" fill="#5B3FB8" text-anchor="middle" x="670" y="207">near future</text>
<line stroke="#3B4754" stroke-width="1.4" x1="205" x2="205" y1="255" y2="288"></line>
<line stroke="#3B4754" stroke-width="1.4" x1="595" x2="595" y1="255" y2="288"></line>
<rect fill="#141C24" height="34" rx="5" width="720" x="40" y="288"></rect>
<text class="sv-s" fill="#E4E8E4" text-anchor="middle" x="400" y="309">interconnect network · explicit message passing, no common memory</text>
<text class="sv-m" fill="#6B7683" text-anchor="middle" x="400" y="345">the node boundary is the address-space boundary</text>
</svg>